<mxfile host="app.diagrams.net" modified="2020-08-29T04:12:40.173Z" agent="5.0 (Windows NT 10.0; Win64; x64) AppleWebKit/537.36 (KHTML, like Gecko) Chrome/84.0.4147.135 Safari/537.36" etag="EkLv8bETSRbRIJWKhJjC" version="13.6.4" type="github">
  <diagram id="J789HSuGaJoiv6ZchiYH" name="Page-1">
    <mxGraphModel dx="782" dy="437" grid="1" gridSize="10" guides="1" tooltips="1" connect="1" arrows="1" fold="1" page="1" pageScale="1" pageWidth="827" pageHeight="1169" math="0" shadow="0">
      <root>
        <mxCell id="0" />
        <mxCell id="1" parent="0" />
        <mxCell id="YizOE2Szrx4T3cSO2rfp-1" value="Run(kubeletServer, kubeletDeps, utilfeature.DefaultFeatureGate)" style="rounded=1;whiteSpace=wrap;html=1;" vertex="1" parent="1">
          <mxGeometry x="100" y="80" width="380" height="50" as="geometry" />
        </mxCell>
      </root>
    </mxGraphModel>
  </diagram>
</mxfile>
